<svg id="svg" version="1.1" xmlns="http://www.w3.org/2000/svg" xmlns:xlink="http://www.w3.org/1999/xlink" width="400" height="400" viewBox="0, 0, 400,400"><g id="svgg"><path id="path0" d="M282.800 28.749 C 282.800 28.940,280.820 29.225,278.400 29.382 C 275.980 29.539,274.000 29.832,274.000 30.034 C 274.000 30.235,273.370 30.400,272.600 30.400 C 271.830 30.400,271.200 30.557,271.200 30.748 C 271.200 30.940,270.120 31.219,268.800 31.368 C 267.480 31.518,266.400 31.811,266.400 32.020 C 266.400 32.229,265.950 32.400,265.400 32.400 C 264.850 32.400,264.400 32.563,264.400 32.762 C 264.400 32.962,263.500 33.249,262.400 33.400 C 261.300 33.551,260.400 33.838,260.400 34.038 C 260.400 34.237,260.130 34.400,259.800 34.400 C 259.470 34.400,259.200 34.572,259.200 34.782 C 259.200 34.992,258.570 35.282,257.800 35.426 C 257.030 35.571,256.400 35.849,256.400 36.045 C 256.400 36.240,256.130 36.400,255.800 36.400 C 255.470 36.400,255.200 36.580,255.200 36.800 C 255.200 37.020,254.772 37.200,254.249 37.200 C 253.726 37.200,253.074 37.470,252.800 37.800 C 252.526 38.130,252.054 38.400,251.751 38.400 C 251.448 38.400,251.200 38.580,251.200 38.800 C 251.200 39.020,250.930 39.200,250.600 39.200 C 250.270 39.200,250.000 39.377,250.000 39.592 C 250.000 39.808,249.550 40.098,249.000 40.236 C 248.450 40.374,248.000 40.647,248.000 40.843 C 248.000 41.040,247.659 41.200,247.243 41.200 C 246.826 41.200,246.382 41.470,246.255 41.800 C 246.129 42.130,245.672 42.400,245.240 42.400 C 244.807 42.400,244.343 42.751,244.206 43.180 C 244.070 43.608,243.579 44.080,243.113 44.227 C 242.648 44.375,241.839 44.924,241.316 45.448 C 240.792 45.972,240.183 46.400,239.963 46.400 C 239.415 46.400,162.400 123.468,162.400 124.016 C 162.400 124.257,161.770 125.048,161.000 125.774 C 160.230 126.500,159.600 127.258,159.600 127.459 C 159.600 127.659,159.240 128.083,158.800 128.400 C 158.360 128.717,158.000 129.199,158.000 129.470 C 158.000 129.742,157.572 130.392,157.048 130.916 C 156.524 131.439,155.959 132.303,155.791 132.834 C 155.623 133.365,155.152 134.091,154.744 134.446 C 154.335 134.802,153.889 135.657,153.751 136.346 C 153.613 137.036,153.343 137.600,153.150 137.600 C 152.958 137.600,152.800 137.870,152.800 138.200 C 152.800 138.530,152.628 138.800,152.418 138.800 C 152.208 138.800,151.918 139.430,151.774 140.200 C 151.629 140.970,151.351 141.600,151.155 141.600 C 150.960 141.600,150.800 141.870,150.800 142.200 C 150.800 142.530,150.622 142.800,150.405 142.800 C 150.187 142.800,149.894 143.520,149.754 144.400 C 149.613 145.280,149.341 146.000,149.149 146.000 C 148.957 146.000,148.800 146.360,148.800 146.800 C 148.800 147.240,148.620 147.600,148.400 147.600 C 147.733 147.600,147.953 148.291,148.700 148.542 C 149.085 148.671,149.703 148.999,150.074 149.270 C 150.750 149.764,151.058 149.687,153.672 148.367 C 154.042 148.181,155.532 147.906,156.983 147.758 C 158.435 147.609,159.718 147.333,159.835 147.144 C 159.952 146.955,160.811 146.800,161.744 146.800 C 162.677 146.800,163.653 146.587,163.914 146.326 C 164.587 145.653,185.813 145.653,186.486 146.326 C 186.747 146.587,187.723 146.800,188.656 146.800 C 189.589 146.800,190.453 146.962,190.576 147.161 C 190.698 147.359,191.879 147.647,193.200 147.800 C 194.521 147.953,195.702 148.241,195.824 148.439 C 195.947 148.638,196.541 148.800,197.144 148.800 C 197.747 148.800,198.411 148.965,198.620 149.166 C 199.833 150.333,202.959 149.397,204.919 147.281 C 205.184 146.995,205.634 146.545,205.919 146.281 C 206.205 146.016,206.655 145.566,206.919 145.281 C 207.184 144.995,207.634 144.545,207.919 144.281 C 208.205 144.016,208.655 143.566,208.919 143.281 C 209.184 142.995,209.634 142.545,209.919 142.281 C 210.205 142.016,210.655 141.566,210.919 141.281 C 211.184 140.995,211.634 140.545,211.919 140.281 C 212.205 140.016,212.655 139.566,212.919 139.281 C 213.184 138.995,213.634 138.545,213.919 138.281 C 214.205 138.016,214.655 137.566,214.919 137.281 C 215.184 136.995,215.634 136.545,215.919 136.281 C 216.205 136.016,216.655 135.566,216.919 135.281 C 217.184 134.995,217.634 134.545,217.919 134.281 C 218.205 134.016,218.655 133.566,218.919 133.281 C 219.184 132.995,219.634 132.545,219.919 132.281 C 220.205 132.016,220.655 131.566,220.919 131.281 C 221.184 130.995,221.634 130.545,221.919 130.281 C 222.205 130.016,222.655 129.566,222.919 129.281 C 223.184 128.995,223.634 128.545,223.919 128.281 C 224.205 128.016,224.655 127.566,224.919 127.281 C 225.184 126.995,225.634 126.545,225.919 126.281 C 226.205 126.016,226.655 125.566,226.919 125.281 C 227.184 124.995,227.634 124.545,227.919 124.281 C 228.205 124.016,228.655 123.566,228.919 123.281 C 229.184 122.995,229.634 122.545,229.919 122.281 C 230.205 122.016,230.655 121.567,230.919 121.281 C 233.704 118.279,241.319 110.800,241.593 110.800 C 241.787 110.800,242.057 110.449,242.194 110.020 C 242.330 109.592,242.783 109.133,243.200 109.000 C 243.617 108.867,244.067 108.417,244.200 108.000 C 244.333 107.583,244.783 107.133,245.200 107.000 C 245.617 106.867,246.067 106.417,246.200 106.000 C 246.333 105.583,246.783 105.133,247.200 105.000 C 247.617 104.867,248.067 104.417,248.200 104.000 C 248.333 103.583,248.783 103.133,249.200 103.000 C 249.617 102.867,250.067 102.417,250.200 102.000 C 250.333 101.583,250.783 101.133,251.200 101.000 C 251.617 100.867,252.067 100.417,252.200 100.000 C 252.333 99.583,252.783 99.133,253.200 99.000 C 253.617 98.867,254.067 98.417,254.200 98.000 C 254.333 97.583,254.783 97.133,255.200 97.000 C 255.617 96.867,256.067 96.417,256.200 96.000 C 256.333 95.583,256.783 95.133,257.200 95.000 C 257.617 94.867,258.067 94.417,258.200 94.000 C 258.333 93.583,258.783 93.133,259.200 93.000 C 259.617 92.867,260.067 92.417,260.200 92.000 C 260.333 91.583,260.783 91.133,261.200 91.000 C 261.617 90.867,262.067 90.417,262.200 90.000 C 262.333 89.583,262.783 89.133,263.200 89.000 C 263.617 88.867,264.067 88.417,264.200 88.000 C 264.333 87.583,264.783 87.133,265.200 87.000 C 265.617 86.867,266.070 86.408,266.206 85.980 C 266.343 85.551,266.740 85.200,267.089 85.200 C 267.438 85.200,268.409 84.480,269.246 83.600 C 270.083 82.720,271.026 82.000,271.341 82.000 C 271.656 82.000,272.018 81.730,272.145 81.400 C 272.271 81.070,272.741 80.800,273.187 80.800 C 273.634 80.800,274.000 80.620,274.000 80.400 C 274.000 80.180,274.270 80.000,274.600 80.000 C 274.930 80.000,275.200 79.820,275.200 79.600 C 275.200 79.380,275.455 79.200,275.767 79.200 C 276.078 79.200,276.394 79.017,276.469 78.793 C 276.544 78.569,277.549 78.274,278.702 78.137 C 279.856 78.000,280.800 77.734,280.800 77.544 C 280.800 77.355,281.235 77.200,281.767 77.200 C 282.298 77.200,282.808 76.975,282.900 76.700 C 283.026 76.322,285.009 76.200,291.000 76.200 C 296.991 76.200,298.974 76.322,299.100 76.700 C 299.192 76.975,299.702 77.200,300.233 77.200 C 300.765 77.200,301.200 77.357,301.200 77.548 C 301.200 77.739,302.049 77.992,303.087 78.109 C 304.125 78.226,305.040 78.519,305.120 78.761 C 305.201 79.002,305.612 79.200,306.033 79.200 C 306.455 79.200,306.800 79.380,306.800 79.600 C 306.800 79.820,307.070 80.000,307.400 80.000 C 307.730 80.000,308.000 80.160,308.000 80.357 C 308.000 80.553,308.450 80.826,309.000 80.964 C 309.550 81.102,310.000 81.392,310.000 81.608 C 310.000 81.823,310.247 82.000,310.548 82.000 C 310.850 82.000,311.795 82.720,312.648 83.600 C 313.502 84.479,314.425 85.199,314.700 85.200 C 314.975 85.200,315.200 85.429,315.200 85.710 C 315.200 85.990,316.010 86.982,317.000 87.914 C 317.990 88.845,318.800 89.857,318.800 90.161 C 318.800 90.465,319.070 90.818,319.400 90.945 C 319.730 91.071,320.000 91.541,320.000 91.987 C 320.000 92.434,320.180 92.800,320.400 92.800 C 320.620 92.800,320.800 93.070,320.800 93.400 C 320.800 93.730,320.972 94.000,321.182 94.000 C 321.392 94.000,321.682 94.630,321.826 95.400 C 321.971 96.170,322.249 96.800,322.445 96.800 C 322.640 96.800,322.800 97.340,322.800 98.000 C 322.800 98.660,322.971 99.200,323.180 99.200 C 323.389 99.200,323.682 100.280,323.832 101.600 C 323.981 102.920,324.260 104.000,324.452 104.000 C 324.643 104.000,324.800 106.520,324.800 109.600 C 324.800 112.680,324.643 115.200,324.452 115.200 C 324.260 115.200,323.981 116.280,323.832 117.600 C 323.682 118.920,323.389 120.000,323.180 120.000 C 322.971 120.000,322.800 120.630,322.800 121.400 C 322.800 122.170,322.628 122.800,322.418 122.800 C 322.208 122.800,321.918 123.430,321.774 124.200 C 321.629 124.970,321.351 125.600,321.155 125.600 C 320.960 125.600,320.800 125.870,320.800 126.200 C 320.800 126.530,320.641 126.800,320.447 126.800 C 320.252 126.800,319.988 127.115,319.858 127.500 C 319.478 128.631,318.709 129.665,316.900 131.472 C 315.965 132.406,315.200 133.351,315.200 133.572 C 315.200 133.793,300.890 148.284,283.400 165.774 C 265.910 183.264,251.600 197.810,251.600 198.099 C 251.600 198.702,247.177 203.200,246.585 203.200 C 246.369 203.200,245.976 203.547,245.711 203.971 C 245.231 204.740,244.342 205.310,241.500 206.671 C 240.675 207.066,240.000 207.518,240.000 207.676 C 240.000 207.834,239.368 208.082,238.596 208.227 C 237.823 208.372,237.093 208.650,236.972 208.845 C 236.851 209.040,236.148 209.200,235.410 209.200 C 234.671 209.200,234.000 209.400,233.918 209.645 C 233.831 209.908,232.255 210.177,230.074 210.301 C 228.041 210.417,226.282 210.667,226.165 210.856 C 226.048 211.045,225.434 211.200,224.800 211.200 C 224.166 211.200,223.552 211.045,223.435 210.856 C 223.318 210.667,221.634 210.422,219.694 210.311 C 217.753 210.200,215.768 209.905,215.283 209.655 C 213.160 208.561,212.786 208.400,212.366 208.400 C 211.901 208.400,209.435 207.391,208.400 206.778 C 208.070 206.582,207.170 206.115,206.400 205.740 C 204.780 204.951,200.940 201.707,198.140 198.762 C 197.073 197.640,195.840 196.557,195.400 196.357 C 194.960 196.156,193.880 195.540,193.000 194.989 C 192.120 194.437,190.950 193.806,190.400 193.585 C 189.150 193.083,187.590 192.400,186.784 192.002 C 186.445 191.835,185.230 191.569,184.084 191.412 C 182.938 191.254,182.000 190.962,182.000 190.762 C 182.000 190.257,168.913 190.293,168.600 190.800 C 168.464 191.020,167.920 191.200,167.390 191.200 C 164.967 191.200,157.752 194.408,154.800 196.797 C 153.810 197.599,152.685 198.371,152.300 198.515 C 151.915 198.658,151.600 199.015,151.600 199.309 C 151.600 199.603,150.970 200.454,150.200 201.200 C 148.833 202.525,148.117 205.600,149.175 205.600 C 149.382 205.600,149.672 206.410,149.821 207.400 C 149.969 208.390,150.250 209.200,150.445 209.200 C 150.640 209.200,150.800 209.470,150.800 209.800 C 150.800 210.130,150.972 210.400,151.182 210.400 C 151.392 210.400,151.682 211.030,151.826 211.800 C 151.971 212.570,152.249 213.200,152.445 213.200 C 152.640 213.200,152.800 213.470,152.800 213.800 C 152.800 214.130,152.960 214.400,153.157 214.400 C 153.353 214.400,153.626 214.850,153.764 215.400 C 153.902 215.950,154.192 216.400,154.408 216.400 C 154.623 216.400,154.800 216.670,154.800 217.000 C 154.800 217.330,154.980 217.600,155.200 217.600 C 155.420 217.600,155.600 217.966,155.600 218.413 C 155.600 218.859,155.870 219.329,156.200 219.455 C 156.530 219.582,156.800 220.007,156.800 220.400 C 156.800 220.793,157.070 221.218,157.400 221.345 C 157.730 221.471,158.000 221.830,158.000 222.142 C 158.000 222.455,158.538 223.135,159.196 223.655 C 159.854 224.175,160.394 224.818,160.396 225.085 C 160.398 225.351,161.120 226.282,162.000 227.153 C 162.880 228.024,163.600 228.931,163.600 229.169 C 163.600 229.406,163.768 229.600,163.973 229.600 C 164.178 229.600,164.457 229.951,164.594 230.380 C 164.730 230.808,165.183 231.267,165.600 231.400 C 166.017 231.533,166.467 231.983,166.600 232.400 C 166.733 232.817,167.183 233.267,167.600 233.400 C 168.017 233.533,168.467 233.983,168.600 234.400 C 168.733 234.817,169.183 235.267,169.600 235.400 C 170.017 235.533,170.470 235.992,170.606 236.420 C 170.743 236.849,171.140 237.200,171.489 237.200 C 171.838 237.200,172.809 237.920,173.646 238.800 C 174.483 239.680,175.374 240.400,175.626 240.400 C 175.879 240.400,176.439 240.850,176.871 241.400 C 177.304 241.950,177.849 242.400,178.082 242.400 C 178.315 242.400,178.797 242.734,179.153 243.143 C 179.509 243.551,180.205 244.013,180.700 244.170 C 181.195 244.326,181.600 244.622,181.600 244.827 C 181.600 245.032,181.870 245.200,182.200 245.200 C 182.530 245.200,182.800 245.380,182.800 245.600 C 182.800 245.820,183.166 246.000,183.613 246.000 C 184.059 246.000,184.529 246.270,184.655 246.600 C 184.782 246.930,185.226 247.200,185.643 247.200 C 186.059 247.200,186.400 247.366,186.400 247.568 C 186.400 247.771,186.940 248.055,187.600 248.200 C 188.260 248.345,188.800 248.629,188.800 248.832 C 188.800 249.034,189.160 249.200,189.600 249.200 C 190.040 249.200,190.400 249.372,190.400 249.582 C 190.400 249.792,191.075 250.088,191.900 250.240 C 192.725 250.391,193.490 250.624,193.600 250.758 C 194.314 251.623,195.800 252.001,197.562 251.767 C 198.814 251.601,199.595 251.668,199.772 251.955 C 199.924 252.200,200.476 252.400,201.000 252.400 C 201.524 252.400,202.061 252.575,202.193 252.788 C 202.325 253.002,203.330 253.296,204.425 253.441 C 205.521 253.587,206.515 253.862,206.633 254.053 C 206.751 254.244,207.521 254.400,208.344 254.400 C 209.167 254.400,210.024 254.584,210.248 254.808 C 210.472 255.032,213.575 255.331,217.143 255.471 C 220.712 255.612,223.725 255.878,223.839 256.063 C 224.109 256.500,225.891 256.500,226.161 256.063 C 226.275 255.878,229.200 255.610,232.661 255.467 C 236.121 255.324,239.134 255.026,239.356 254.804 C 239.578 254.582,240.433 254.400,241.256 254.400 C 242.079 254.400,242.848 254.245,242.965 254.056 C 243.082 253.867,244.020 253.596,245.049 253.455 C 246.078 253.314,247.117 253.039,247.360 252.843 C 247.602 252.647,249.227 252.417,250.970 252.332 C 252.992 252.233,254.200 252.000,254.304 251.689 C 254.393 251.420,254.902 251.200,255.433 251.200 C 255.965 251.200,256.400 251.040,256.400 250.845 C 256.400 250.649,257.030 250.371,257.800 250.226 C 258.570 250.082,259.200 249.792,259.200 249.582 C 259.200 249.372,259.470 249.200,259.800 249.200 C 260.130 249.200,260.400 249.040,260.400 248.845 C 260.400 248.649,261.030 248.371,261.800 248.226 C 262.570 248.082,263.200 247.792,263.200 247.582 C 263.200 247.372,263.470 247.200,263.800 247.200 C 264.130 247.200,264.400 247.020,264.400 246.800 C 264.400 246.580,264.766 246.400,265.213 246.400 C 265.659 246.400,266.129 246.130,266.255 245.800 C 266.382 245.470,266.826 245.200,267.243 245.200 C 267.659 245.200,268.000 245.040,268.000 244.843 C 268.000 244.647,268.438 244.377,268.973 244.242 C 269.509 244.108,270.061 243.639,270.200 243.199 C 270.340 242.758,270.806 242.400,271.240 242.400 C 271.672 242.400,272.129 242.130,272.255 241.800 C 272.382 241.470,272.814 241.200,273.216 241.200 C 273.617 241.200,274.057 240.849,274.194 240.420 C 274.330 239.992,274.792 239.530,275.220 239.394 C 275.649 239.257,276.000 238.978,276.000 238.773 C 276.000 238.568,276.194 238.400,276.431 238.400 C 276.669 238.400,277.559 237.725,278.411 236.900 C 279.262 236.075,280.193 235.180,280.480 234.911 C 281.135 234.295,281.882 233.549,282.511 232.881 C 282.780 232.595,283.234 232.145,283.519 231.881 C 283.805 231.616,284.255 231.166,284.519 230.881 C 284.784 230.595,285.234 230.145,285.519 229.881 C 285.805 229.616,286.255 229.166,286.519 228.881 C 286.784 228.595,287.234 228.145,287.519 227.881 C 287.805 227.616,288.255 227.166,288.519 226.881 C 288.784 226.595,289.234 226.145,289.519 225.881 C 289.805 225.616,290.255 225.166,290.519 224.881 C 290.784 224.595,291.234 224.145,291.519 223.881 C 291.805 223.616,292.255 223.166,292.519 222.881 C 292.784 222.595,293.234 222.145,293.519 221.881 C 293.805 221.616,294.255 221.166,294.519 220.881 C 294.784 220.595,295.234 220.145,295.519 219.881 C 295.805 219.616,296.255 219.166,296.519 218.881 C 296.784 218.595,297.234 218.145,297.519 217.881 C 297.805 217.616,298.255 217.166,298.519 216.881 C 298.784 216.595,299.234 216.145,299.519 215.881 C 299.805 215.616,300.255 215.166,300.519 214.881 C 300.784 214.595,301.234 214.145,301.519 213.881 C 301.805 213.616,302.255 213.166,302.519 212.881 C 302.784 212.595,303.234 212.145,303.519 211.881 C 303.805 211.616,304.255 211.166,304.519 210.881 C 304.784 210.595,305.234 210.145,305.519 209.881 C 305.805 209.616,306.255 209.166,306.519 208.881 C 306.784 208.595,307.234 208.145,307.519 207.881 C 307.805 207.616,308.255 207.166,308.519 206.881 C 308.784 206.595,309.234 206.145,309.519 205.881 C 309.805 205.616,310.255 205.166,310.519 204.881 C 310.784 204.595,311.234 204.145,311.519 203.881 C 311.805 203.616,312.255 203.166,312.519 202.881 C 312.784 202.595,313.234 202.145,313.519 201.881 C 313.805 201.616,314.255 201.167,314.519 200.881 C 317.076 198.124,320.910 194.400,321.192 194.400 C 321.387 194.400,321.657 194.049,321.794 193.620 C 321.930 193.192,322.383 192.733,322.800 192.600 C 323.217 192.467,323.667 192.017,323.800 191.600 C 323.933 191.183,324.383 190.733,324.800 190.600 C 325.217 190.467,325.667 190.017,325.800 189.600 C 325.933 189.183,326.383 188.733,326.800 188.600 C 327.217 188.467,327.667 188.017,327.800 187.600 C 327.933 187.183,328.383 186.733,328.800 186.600 C 329.217 186.467,329.667 186.017,329.800 185.600 C 329.933 185.183,330.383 184.733,330.800 184.600 C 331.217 184.467,331.667 184.017,331.800 183.600 C 331.933 183.183,332.383 182.733,332.800 182.600 C 333.217 182.467,333.667 182.017,333.800 181.600 C 333.933 181.183,334.383 180.733,334.800 180.600 C 335.217 180.467,335.667 180.017,335.800 179.600 C 335.933 179.183,336.383 178.733,336.800 178.600 C 337.217 178.467,337.667 178.017,337.800 177.600 C 337.933 177.183,338.383 176.733,338.800 176.600 C 339.217 176.467,339.667 176.017,339.800 175.600 C 339.933 175.183,340.383 174.733,340.800 174.600 C 341.217 174.467,341.667 174.017,341.800 173.600 C 341.933 173.183,342.383 172.733,342.800 172.600 C 343.217 172.467,343.667 172.017,343.800 171.600 C 343.933 171.183,344.383 170.733,344.800 170.600 C 345.217 170.467,345.667 170.017,345.800 169.600 C 345.933 169.183,346.383 168.733,346.800 168.600 C 347.217 168.467,347.667 168.017,347.800 167.600 C 347.933 167.183,348.383 166.733,348.800 166.600 C 349.217 166.467,349.667 166.017,349.800 165.600 C 349.933 165.183,350.383 164.733,350.800 164.600 C 351.217 164.467,351.667 164.017,351.800 163.600 C 351.933 163.183,352.383 162.733,352.800 162.600 C 353.217 162.467,353.680 161.979,353.827 161.513 C 353.975 161.048,354.524 160.239,355.048 159.716 C 355.572 159.192,356.000 158.584,356.000 158.364 C 356.000 158.144,356.450 157.514,357.000 156.964 C 357.550 156.414,358.000 155.742,358.000 155.470 C 358.000 155.199,358.360 154.717,358.800 154.400 C 359.240 154.083,359.600 153.593,359.600 153.312 C 359.600 153.030,359.760 152.800,359.957 152.800 C 360.153 152.800,360.426 152.350,360.564 151.800 C 360.702 151.250,360.992 150.800,361.208 150.800 C 361.423 150.800,361.600 150.530,361.600 150.200 C 361.600 149.870,361.780 149.600,362.000 149.600 C 362.220 149.600,362.400 149.234,362.400 148.787 C 362.400 148.341,362.670 147.871,363.000 147.745 C 363.330 147.618,363.600 147.084,363.600 146.557 C 363.600 146.031,363.760 145.600,363.955 145.600 C 364.151 145.600,364.429 144.970,364.574 144.200 C 364.718 143.430,365.008 142.800,365.218 142.800 C 365.428 142.800,365.600 142.530,365.600 142.200 C 365.600 141.870,365.769 141.600,365.975 141.600 C 366.182 141.600,366.472 140.790,366.621 139.800 C 366.769 138.810,367.050 138.000,367.245 138.000 C 367.440 138.000,367.600 137.550,367.600 137.000 C 367.600 136.450,367.763 136.000,367.962 136.000 C 368.162 136.000,368.449 135.100,368.600 134.000 C 368.751 132.900,369.038 132.000,369.238 132.000 C 369.437 132.000,369.600 131.475,369.600 130.833 C 369.600 130.192,369.773 129.607,369.984 129.533 C 370.195 129.460,370.491 127.915,370.641 126.100 C 370.792 124.285,371.069 122.800,371.258 122.800 C 371.446 122.800,371.600 121.720,371.600 120.400 C 371.600 119.067,371.778 118.000,372.000 118.000 C 372.254 118.000,372.400 114.933,372.400 109.600 C 372.400 104.267,372.254 101.200,372.000 101.200 C 371.780 101.200,371.600 100.210,371.600 99.000 C 371.600 97.790,371.446 96.800,371.258 96.800 C 371.069 96.800,370.792 95.315,370.641 93.500 C 370.491 91.685,370.195 90.140,369.984 90.067 C 369.773 89.993,369.600 89.318,369.600 88.567 C 369.600 87.815,369.437 87.200,369.238 87.200 C 369.038 87.200,368.751 86.300,368.600 85.200 C 368.449 84.100,368.162 83.200,367.962 83.200 C 367.763 83.200,367.600 82.750,367.600 82.200 C 367.600 81.650,367.443 81.200,367.251 81.200 C 367.059 81.200,366.787 80.480,366.646 79.600 C 366.506 78.720,366.213 78.000,365.995 78.000 C 365.778 78.000,365.600 77.640,365.600 77.200 C 365.600 76.760,365.434 76.400,365.232 76.400 C 365.029 76.400,364.745 75.860,364.600 75.200 C 364.455 74.540,364.171 74.000,363.968 74.000 C 363.766 74.000,363.600 73.550,363.600 73.000 C 363.600 72.450,363.423 72.000,363.208 72.000 C 362.992 72.000,362.702 71.550,362.564 71.000 C 362.426 70.450,362.153 70.000,361.957 70.000 C 361.760 70.000,361.600 69.640,361.600 69.200 C 361.600 68.760,361.428 68.400,361.219 68.400 C 361.009 68.400,360.523 67.725,360.139 66.900 C 359.755 66.075,359.142 65.130,358.778 64.800 C 358.413 64.470,357.989 63.804,357.837 63.320 C 357.684 62.837,357.208 62.330,356.780 62.194 C 356.351 62.057,356.000 61.623,356.000 61.229 C 356.000 60.835,355.550 60.174,355.000 59.761 C 354.450 59.348,354.000 58.794,354.000 58.530 C 354.000 57.970,342.563 46.400,342.009 46.400 C 341.804 46.400,341.208 45.972,340.684 45.448 C 340.161 44.924,339.352 44.375,338.887 44.227 C 338.421 44.080,337.930 43.608,337.794 43.180 C 337.657 42.751,337.193 42.400,336.760 42.400 C 336.328 42.400,335.871 42.130,335.745 41.800 C 335.618 41.470,335.174 41.200,334.757 41.200 C 334.341 41.200,334.000 41.040,334.000 40.843 C 334.000 40.647,333.550 40.374,333.000 40.236 C 332.450 40.098,332.000 39.808,332.000 39.592 C 332.000 39.377,331.730 39.200,331.400 39.200 C 331.070 39.200,330.800 39.020,330.800 38.800 C 330.800 38.580,330.552 38.400,330.249 38.400 C 329.946 38.400,329.474 38.130,329.200 37.800 C 328.926 37.470,328.274 37.200,327.751 37.200 C 327.228 37.200,326.800 37.062,326.800 36.894 C 326.800 36.573,323.880 35.200,323.197 35.200 C 322.979 35.200,322.800 35.064,322.800 34.898 C 322.800 34.445,320.822 33.667,318.900 33.365 C 317.965 33.218,317.200 32.941,317.200 32.749 C 317.200 32.557,316.750 32.400,316.200 32.400 C 315.650 32.400,315.200 32.233,315.200 32.029 C 315.200 31.825,314.210 31.534,313.000 31.383 C 311.790 31.232,310.800 30.949,310.800 30.754 C 310.800 30.559,310.170 30.400,309.400 30.400 C 308.630 30.400,308.000 30.235,308.000 30.034 C 308.000 29.832,306.020 29.539,303.600 29.382 C 301.180 29.225,299.200 28.940,299.200 28.749 C 299.200 28.557,295.510 28.400,291.000 28.400 C 286.490 28.400,282.800 28.557,282.800 28.749 " stroke="none" fill="#cccccc" fill-rule="evenodd"></path><path id="path1" d="M167.803 145.875 C 165.825 145.962,164.034 146.206,163.823 146.417 C 163.612 146.628,162.677 146.800,161.744 146.800 C 160.811 146.800,159.952 146.955,159.835 147.144 C 159.718 147.333,158.435 147.609,156.983 147.758 C 155.532 147.906,153.997 148.202,153.572 148.414 C 153.147 148.626,152.442 148.980,152.005 149.200 C 150.911 149.751,150.377 149.703,149.579 148.981 C 148.874 148.343,146.800 148.535,146.800 149.239 C 146.800 149.432,146.080 149.706,145.200 149.846 C 144.320 149.987,143.600 150.259,143.600 150.451 C 143.600 150.643,143.240 150.800,142.800 150.800 C 142.360 150.800,142.000 150.980,142.000 151.200 C 142.000 151.420,141.544 151.600,140.987 151.600 C 140.431 151.600,139.871 151.870,139.745 152.200 C 139.618 152.530,139.174 152.800,138.757 152.800 C 138.341 152.800,138.000 152.966,138.000 153.168 C 138.000 153.371,137.460 153.655,136.800 153.800 C 136.140 153.945,135.600 154.229,135.600 154.432 C 135.600 154.634,135.240 154.800,134.800 154.800 C 134.360 154.800,134.000 154.959,134.000 155.153 C 134.000 155.348,133.685 155.612,133.300 155.742 C 132.261 156.091,131.114 156.887,130.193 157.900 C 129.743 158.395,129.077 158.800,128.714 158.800 C 128.351 158.800,127.940 159.160,127.800 159.600 C 127.660 160.040,127.263 160.400,126.916 160.400 C 126.570 160.400,125.771 160.940,125.140 161.600 C 124.509 162.260,123.811 162.800,123.588 162.800 C 122.983 162.800,46.000 239.885,46.000 240.490 C 46.000 240.776,45.550 241.348,45.000 241.761 C 44.450 242.174,44.000 242.835,44.000 243.229 C 44.000 243.623,43.649 244.057,43.220 244.194 C 42.792 244.330,42.316 244.837,42.163 245.320 C 42.011 245.804,41.577 246.470,41.200 246.800 C 40.823 247.130,40.387 247.805,40.230 248.300 C 40.074 248.795,39.778 249.200,39.573 249.200 C 39.368 249.200,39.200 249.470,39.200 249.800 C 39.200 250.130,39.020 250.400,38.800 250.400 C 38.580 250.400,38.400 250.760,38.400 251.200 C 38.400 251.640,38.240 252.000,38.043 252.000 C 37.847 252.000,37.574 252.450,37.436 253.000 C 37.298 253.550,37.008 254.000,36.792 254.000 C 36.577 254.000,36.400 254.270,36.400 254.600 C 36.400 254.930,36.243 255.200,36.051 255.200 C 35.859 255.200,35.587 255.920,35.446 256.800 C 35.306 257.680,35.013 258.400,34.795 258.400 C 34.578 258.400,34.400 258.760,34.400 259.200 C 34.400 259.640,34.222 260.000,34.005 260.000 C 33.787 260.000,33.494 260.720,33.354 261.600 C 33.213 262.480,32.941 263.200,32.749 263.200 C 32.557 263.200,32.400 263.650,32.400 264.200 C 32.400 264.750,32.237 265.200,32.038 265.200 C 31.838 265.200,31.551 266.100,31.400 267.200 C 31.249 268.300,30.962 269.200,30.762 269.200 C 30.563 269.200,30.400 269.815,30.400 270.567 C 30.400 271.318,30.221 271.993,30.003 272.067 C 29.785 272.140,29.488 273.601,29.343 275.313 C 29.199 277.026,28.927 278.521,28.740 278.637 C 28.553 278.753,28.400 279.827,28.400 281.024 C 28.400 282.221,28.220 283.200,28.000 283.200 C 27.746 283.200,27.600 286.267,27.600 291.600 C 27.600 296.933,27.746 300.000,28.000 300.000 C 28.222 300.000,28.400 301.067,28.400 302.400 C 28.400 303.720,28.554 304.800,28.741 304.800 C 28.929 304.800,29.200 306.195,29.344 307.900 C 29.488 309.605,29.785 311.060,30.003 311.133 C 30.221 311.207,30.400 311.882,30.400 312.633 C 30.400 313.385,30.563 314.000,30.762 314.000 C 30.962 314.000,31.249 314.900,31.400 316.000 C 31.551 317.100,31.838 318.000,32.038 318.000 C 32.237 318.000,32.400 318.450,32.400 319.000 C 32.400 319.550,32.580 320.000,32.800 320.000 C 33.020 320.000,33.200 320.359,33.200 320.797 C 33.200 321.777,34.476 324.800,34.890 324.800 C 35.055 324.800,35.306 325.520,35.446 326.400 C 35.587 327.280,35.859 328.000,36.051 328.000 C 36.243 328.000,36.400 328.360,36.400 328.800 C 36.400 329.240,36.581 329.600,36.801 329.600 C 37.022 329.600,37.514 330.320,37.896 331.200 C 38.277 332.080,38.726 332.800,38.894 332.800 C 39.062 332.800,39.200 333.070,39.200 333.400 C 39.200 333.730,39.368 334.000,39.573 334.000 C 39.778 334.000,40.074 334.405,40.230 334.900 C 40.387 335.395,40.849 336.091,41.257 336.447 C 41.666 336.803,42.000 337.290,42.000 337.529 C 42.000 337.768,42.428 338.392,42.952 338.916 C 43.476 339.439,44.025 340.248,44.173 340.713 C 44.320 341.179,44.792 341.670,45.220 341.806 C 45.649 341.943,46.000 342.324,46.000 342.655 C 46.000 343.207,57.260 354.800,57.797 354.800 C 58.024 354.800,58.583 355.222,59.785 356.300 C 60.092 356.575,60.470 356.800,60.626 356.800 C 60.781 356.800,61.325 357.250,61.835 357.800 C 62.345 358.350,63.021 358.800,63.338 358.800 C 63.655 358.800,64.019 359.073,64.147 359.406 C 64.275 359.739,64.834 360.185,65.390 360.396 C 65.945 360.607,66.400 360.965,66.400 361.190 C 66.400 361.416,66.760 361.600,67.200 361.600 C 67.640 361.600,68.000 361.766,68.000 361.968 C 68.000 362.171,68.540 362.455,69.200 362.600 C 69.860 362.745,70.400 362.990,70.400 363.146 C 70.400 363.614,72.666 364.800,73.562 364.800 C 74.023 364.800,74.400 364.980,74.400 365.200 C 74.400 365.420,74.760 365.600,75.200 365.600 C 75.640 365.600,76.000 365.766,76.000 365.968 C 76.000 366.171,76.538 366.455,77.195 366.599 C 77.853 366.743,78.494 367.028,78.619 367.231 C 78.745 367.434,79.287 367.600,79.824 367.600 C 80.361 367.600,80.800 367.763,80.800 367.962 C 80.800 368.162,81.700 368.449,82.800 368.600 C 83.900 368.751,84.800 369.038,84.800 369.238 C 84.800 369.437,85.250 369.600,85.800 369.600 C 86.350 369.600,86.800 369.766,86.800 369.968 C 86.800 370.171,87.970 370.462,89.400 370.615 C 90.830 370.768,92.000 371.052,92.000 371.247 C 92.000 371.441,92.885 371.600,93.967 371.600 C 95.184 371.600,95.997 371.790,96.100 372.100 C 96.229 372.486,99.169 372.600,109.000 372.600 C 118.831 372.600,121.771 372.486,121.900 372.100 C 122.003 371.790,122.816 371.600,124.033 371.600 C 125.115 371.600,126.000 371.441,126.000 371.247 C 126.000 371.052,127.168 370.768,128.596 370.615 C 130.023 370.462,131.294 370.171,131.419 369.969 C 131.545 369.766,132.087 369.600,132.624 369.600 C 133.161 369.600,133.600 369.440,133.600 369.245 C 133.600 369.050,134.406 368.770,135.391 368.622 C 136.376 368.475,137.286 368.184,137.414 367.977 C 137.542 367.770,138.087 367.600,138.624 367.600 C 139.161 367.600,139.600 367.434,139.600 367.232 C 139.600 367.029,140.140 366.745,140.800 366.600 C 141.460 366.455,142.000 366.171,142.000 365.968 C 142.000 365.766,142.360 365.600,142.800 365.600 C 143.240 365.600,143.600 365.443,143.600 365.251 C 143.600 365.059,144.277 364.794,145.104 364.662 C 145.931 364.529,146.866 364.063,147.182 363.625 C 147.497 363.188,148.260 362.719,148.878 362.583 C 149.495 362.447,150.000 362.171,150.000 361.968 C 150.000 361.766,150.360 361.600,150.800 361.600 C 151.240 361.600,151.600 361.416,151.600 361.190 C 151.600 360.965,152.055 360.607,152.610 360.396 C 153.166 360.185,153.725 359.739,153.853 359.406 C 153.981 359.073,154.345 358.800,154.662 358.800 C 154.979 358.800,155.655 358.350,156.165 357.800 C 156.675 357.250,157.219 356.800,157.374 356.800 C 157.530 356.800,157.908 356.575,158.215 356.300 C 159.449 355.193,159.979 354.800,160.237 354.800 C 160.386 354.800,162.103 353.225,164.053 351.300 C 166.003 349.375,167.824 347.584,168.099 347.319 C 168.375 347.055,168.816 346.605,169.081 346.319 C 169.345 346.034,169.795 345.584,170.081 345.319 C 170.366 345.055,170.816 344.605,171.081 344.319 C 171.345 344.034,171.795 343.584,172.081 343.319 C 172.366 343.055,172.816 342.605,173.081 342.319 C 173.345 342.034,173.795 341.584,174.081 341.319 C 174.366 341.055,174.816 340.605,175.081 340.319 C 175.345 340.034,175.795 339.584,176.081 339.319 C 176.366 339.055,176.816 338.605,177.081 338.319 C 177.345 338.034,177.795 337.584,178.081 337.319 C 178.366 337.055,178.816 336.605,179.081 336.319 C 179.345 336.034,179.795 335.584,180.081 335.319 C 180.366 335.055,180.816 334.605,181.081 334.319 C 181.345 334.034,181.795 333.584,182.081 333.319 C 182.366 333.055,182.816 332.605,183.081 332.319 C 183.345 332.034,183.795 331.584,184.081 331.319 C 184.366 331.055,184.820 330.605,185.089 330.319 C 185.358 330.034,185.786 329.598,186.041 329.352 C 186.296 329.106,191.429 323.976,197.449 317.952 C 203.468 311.928,208.620 306.784,208.897 306.519 C 209.173 306.255,209.616 305.805,209.881 305.519 C 210.145 305.234,210.595 304.784,210.881 304.519 C 211.166 304.255,211.616 303.805,211.881 303.519 C 212.145 303.234,212.595 302.784,212.881 302.519 C 213.166 302.255,213.616 301.805,213.881 301.519 C 214.145 301.234,214.595 300.784,214.881 300.519 C 215.166 300.255,215.616 299.805,215.881 299.519 C 216.145 299.234,216.595 298.784,216.881 298.519 C 217.166 298.255,217.616 297.805,217.881 297.519 C 218.145 297.234,218.595 296.784,218.881 296.519 C 219.166 296.255,219.616 295.805,219.881 295.519 C 220.145 295.234,220.595 294.780,220.881 294.511 C 221.542 293.888,222.288 293.142,222.911 292.481 C 223.180 292.195,223.634 291.745,223.919 291.481 C 224.205 291.216,224.655 290.766,224.919 290.481 C 225.184 290.195,225.634 289.745,225.919 289.481 C 226.205 289.216,226.655 288.776,226.919 288.501 C 227.184 288.227,229.695 285.683,232.500 282.849 C 235.305 280.015,237.600 277.416,237.600 277.075 C 237.600 276.733,237.951 276.343,238.380 276.206 C 238.808 276.070,239.270 275.608,239.406 275.180 C 239.543 274.751,239.822 274.400,240.027 274.400 C 240.232 274.400,240.400 274.170,240.400 273.888 C 240.400 273.607,240.760 273.117,241.200 272.800 C 241.640 272.483,242.000 271.992,242.000 271.709 C 242.000 271.426,242.450 270.803,243.000 270.325 C 243.550 269.847,244.000 269.213,244.000 268.915 C 244.000 268.618,244.270 268.271,244.600 268.145 C 244.930 268.018,245.200 267.574,245.200 267.157 C 245.200 266.741,245.366 266.400,245.568 266.400 C 245.771 266.400,246.055 265.860,246.200 265.200 C 246.345 264.540,246.629 264.000,246.832 264.000 C 247.034 264.000,247.200 263.640,247.200 263.200 C 247.200 262.760,247.360 262.400,247.557 262.400 C 247.753 262.400,248.026 261.950,248.164 261.400 C 248.302 260.850,248.592 260.400,248.808 260.400 C 249.023 260.400,249.200 259.950,249.200 259.400 C 249.200 258.850,249.372 258.400,249.582 258.400 C 249.792 258.400,250.088 257.725,250.240 256.900 C 250.391 256.075,250.624 255.310,250.758 255.200 C 251.154 254.873,252.000 253.242,252.000 252.805 C 252.000 252.286,247.727 252.271,247.407 252.788 C 247.275 253.002,246.270 253.296,245.175 253.441 C 244.079 253.587,243.085 253.862,242.967 254.053 C 242.849 254.244,242.079 254.400,241.256 254.400 C 240.433 254.400,239.578 254.582,239.356 254.804 C 239.134 255.026,236.121 255.324,232.661 255.467 C 229.200 255.610,226.275 255.878,226.161 256.063 C 225.891 256.500,224.109 256.500,223.839 256.063 C 223.725 255.878,220.712 255.612,217.143 255.471 C 213.575 255.331,210.472 255.032,210.248 254.808 C 210.024 254.584,209.167 254.400,208.344 254.400 C 207.521 254.400,206.751 254.244,206.633 254.053 C 206.515 253.862,205.521 253.587,204.425 253.441 C 203.330 253.296,202.325 253.002,202.193 252.788 C 202.061 252.575,201.524 252.400,201.000 252.400 C 200.476 252.400,199.936 252.220,199.800 252.000 C 199.477 251.477,197.758 251.487,196.767 252.018 C 195.730 252.573,185.600 262.732,185.600 263.218 C 185.600 263.721,134.082 315.200,133.578 315.200 C 133.363 315.200,132.410 316.010,131.462 317.000 C 130.513 317.990,129.526 318.800,129.269 318.800 C 129.011 318.800,128.800 318.968,128.800 319.173 C 128.800 319.378,128.395 319.674,127.900 319.830 C 127.405 319.987,126.719 320.437,126.376 320.830 C 126.033 321.224,125.268 321.668,124.676 321.817 C 124.084 321.965,123.600 322.247,123.600 322.443 C 123.600 322.640,123.150 322.800,122.600 322.800 C 122.050 322.800,121.600 322.963,121.600 323.162 C 121.600 323.362,120.700 323.649,119.600 323.800 C 118.501 323.951,117.500 324.238,117.377 324.437 C 117.254 324.637,116.443 324.800,115.576 324.800 C 114.709 324.800,114.000 324.980,114.000 325.200 C 114.000 325.445,112.067 325.600,109.000 325.600 C 105.933 325.600,104.000 325.445,104.000 325.200 C 104.000 324.980,103.280 324.800,102.400 324.800 C 101.520 324.800,100.800 324.637,100.800 324.438 C 100.800 324.238,99.900 323.951,98.800 323.800 C 97.700 323.649,96.800 323.362,96.800 323.162 C 96.800 322.963,96.350 322.800,95.800 322.800 C 95.250 322.800,94.800 322.643,94.800 322.450 C 94.800 322.257,94.236 321.987,93.546 321.849 C 92.857 321.711,92.002 321.265,91.646 320.856 C 91.291 320.448,90.595 319.987,90.100 319.830 C 89.605 319.674,89.200 319.378,89.200 319.173 C 89.200 318.968,89.008 318.800,88.774 318.800 C 88.136 318.800,82.000 312.436,82.000 311.774 C 82.000 311.458,81.816 311.200,81.590 311.200 C 81.365 311.200,81.007 310.745,80.796 310.190 C 80.585 309.634,80.139 309.075,79.806 308.947 C 79.473 308.819,79.200 308.374,79.200 307.957 C 79.200 307.541,79.022 307.200,78.805 307.200 C 78.587 307.200,78.294 306.480,78.154 305.600 C 78.013 304.720,77.741 304.000,77.549 304.000 C 77.357 304.000,77.200 303.565,77.200 303.033 C 77.200 302.502,77.022 302.007,76.804 301.933 C 76.586 301.860,76.290 300.675,76.147 299.300 C 76.003 297.925,75.732 296.800,75.543 296.800 C 75.073 296.800,75.107 287.359,75.580 286.495 C 75.790 286.113,76.073 284.765,76.209 283.500 C 76.346 282.235,76.625 281.200,76.829 281.200 C 77.033 281.200,77.200 280.750,77.200 280.200 C 77.200 279.650,77.357 279.200,77.549 279.200 C 77.741 279.200,78.013 278.480,78.154 277.600 C 78.294 276.720,78.587 276.000,78.805 276.000 C 79.022 276.000,79.200 275.659,79.200 275.243 C 79.200 274.826,79.473 274.381,79.806 274.253 C 80.139 274.125,80.585 273.566,80.796 273.010 C 81.007 272.455,81.365 272.000,81.590 272.000 C 81.816 272.000,82.000 271.723,82.000 271.384 C 82.000 271.045,82.720 270.083,83.600 269.246 C 84.480 268.409,85.200 267.532,85.200 267.299 C 85.200 266.942,86.416 265.663,90.502 261.719 C 90.776 261.455,91.216 261.005,91.481 260.719 C 91.745 260.434,92.195 259.984,92.481 259.719 C 92.766 259.455,93.216 259.005,93.481 258.719 C 93.745 258.434,94.195 257.984,94.481 257.719 C 94.766 257.455,95.216 257.005,95.481 256.719 C 95.745 256.434,96.195 255.984,96.481 255.719 C 96.766 255.455,97.216 255.005,97.481 254.719 C 97.745 254.434,98.195 253.984,98.481 253.719 C 98.766 253.455,99.220 253.005,99.489 252.719 C 99.758 252.434,100.186 251.998,100.441 251.752 C 100.695 251.505,107.651 244.530,115.898 236.252 C 124.145 227.973,131.040 221.200,131.219 221.200 C 131.399 221.200,131.657 220.849,131.794 220.420 C 131.930 219.992,132.383 219.533,132.800 219.400 C 133.217 219.267,133.667 218.817,133.800 218.400 C 133.933 217.983,134.383 217.533,134.800 217.400 C 135.217 217.267,135.667 216.817,135.800 216.400 C 135.933 215.983,136.421 215.520,136.886 215.373 C 138.144 214.973,148.800 204.178,148.800 203.303 C 148.800 202.893,149.430 201.946,150.200 201.200 C 150.970 200.454,151.600 199.603,151.600 199.309 C 151.600 199.015,151.915 198.658,152.300 198.515 C 152.685 198.371,153.810 197.599,154.800 196.797 C 157.752 194.408,164.967 191.200,167.390 191.200 C 167.920 191.200,168.464 191.020,168.600 190.800 C 168.913 190.293,182.000 190.257,182.000 190.762 C 182.000 190.962,182.938 191.254,184.084 191.412 C 185.230 191.569,186.445 191.835,186.784 192.002 C 187.590 192.400,189.150 193.083,190.400 193.585 C 190.950 193.806,192.120 194.437,193.000 194.989 C 193.880 195.540,194.960 196.156,195.400 196.357 C 195.840 196.557,197.073 197.640,198.140 198.762 C 200.940 201.707,204.780 204.951,206.400 205.740 C 207.170 206.115,208.070 206.582,208.400 206.778 C 209.435 207.391,211.901 208.400,212.366 208.400 C 212.786 208.400,213.160 208.561,215.283 209.655 C 215.768 209.905,217.753 210.200,219.694 210.311 C 221.634 210.422,223.318 210.667,223.435 210.856 C 223.711 211.303,225.889 211.303,226.165 210.856 C 226.282 210.667,228.041 210.417,230.074 210.301 C 232.255 210.177,233.831 209.908,233.918 209.645 C 234.000 209.400,234.671 209.200,235.410 209.200 C 236.148 209.200,236.851 209.040,236.972 208.845 C 237.093 208.650,237.823 208.372,238.596 208.227 C 239.368 208.082,240.000 207.834,240.000 207.676 C 240.000 207.518,240.675 207.066,241.500 206.671 C 244.342 205.310,245.231 204.740,245.711 203.971 C 245.976 203.547,246.380 203.200,246.609 203.200 C 247.208 203.200,251.525 198.714,251.613 198.000 C 251.713 197.187,251.178 195.600,250.804 195.600 C 250.638 195.600,250.387 194.880,250.246 194.000 C 250.106 193.120,249.813 192.400,249.595 192.400 C 249.378 192.400,249.200 192.040,249.200 191.600 C 249.200 191.160,249.034 190.800,248.832 190.800 C 248.629 190.800,248.345 190.260,248.200 189.600 C 248.055 188.940,247.771 188.400,247.568 188.400 C 247.366 188.400,247.200 188.040,247.200 187.600 C 247.200 187.160,247.040 186.800,246.843 186.800 C 246.647 186.800,246.365 186.316,246.217 185.724 C 246.068 185.132,245.644 184.364,245.273 184.018 C 244.577 183.367,243.798 182.244,243.320 181.200 C 243.169 180.870,242.810 180.362,242.522 180.071 C 242.235 179.781,242.000 179.325,242.000 179.060 C 242.000 178.794,241.640 178.317,241.200 178.000 C 240.760 177.683,240.400 177.193,240.400 176.912 C 240.400 176.630,240.232 176.400,240.027 176.400 C 239.822 176.400,239.543 176.049,239.406 175.620 C 239.270 175.192,238.817 174.733,238.400 174.600 C 237.983 174.467,237.520 173.979,237.373 173.515 C 237.066 172.547,228.270 163.600,227.626 163.600 C 227.391 163.600,227.200 163.432,227.200 163.227 C 227.200 163.022,226.849 162.743,226.420 162.606 C 225.992 162.470,225.533 162.017,225.400 161.600 C 225.267 161.183,224.763 160.716,224.280 160.563 C 223.796 160.411,223.130 159.977,222.800 159.600 C 222.470 159.223,221.795 158.787,221.300 158.630 C 220.805 158.474,220.400 158.178,220.400 157.973 C 220.400 157.768,220.130 157.600,219.800 157.600 C 219.470 157.600,219.200 157.459,219.200 157.286 C 219.200 157.114,218.615 156.632,217.900 156.216 C 217.185 155.801,216.510 155.347,216.400 155.209 C 216.109 154.844,213.356 153.600,212.840 153.600 C 212.598 153.600,212.400 153.462,212.400 153.294 C 212.400 152.973,209.480 151.600,208.797 151.600 C 208.579 151.600,208.400 151.464,208.400 151.298 C 208.400 150.937,206.673 150.157,205.000 149.761 C 204.340 149.605,203.695 149.318,203.567 149.123 C 203.437 148.925,202.819 148.979,202.167 149.245 C 200.880 149.770,199.209 149.733,198.620 149.166 C 198.411 148.965,197.747 148.800,197.144 148.800 C 196.541 148.800,195.947 148.638,195.824 148.439 C 195.702 148.241,194.521 147.953,193.200 147.800 C 191.879 147.647,190.698 147.359,190.576 147.161 C 190.453 146.962,189.589 146.800,188.656 146.800 C 187.723 146.800,186.789 146.635,186.580 146.434 C 186.148 146.018,173.240 145.634,167.803 145.875 " stroke="none" fill="#c4c4c4" fill-rule="evenodd"></path></g></svg>